<svg width="178" height="24" viewBox="0 0 178 24" fill="none" xmlns="http://www.w3.org/2000/svg">
<path d="M19.1909 13.5L20.1685 9.15656H14.0559V6.33797C14.0559 5.14969 14.9098 3.99141 17.6474 3.99141H20.4263V0.293438C20.4263 0.293438 17.9045 0 15.4935 0C10.4596 0 7.16923 2.08031 7.16923 5.84625V9.15656H1.57367V13.5H7.16923V24H14.0559V13.5H19.1909Z" fill="black" fill-opacity="0.6"/>
<path d="M71.7386 7.11169C71.7525 7.32488 71.7525 7.53811 71.7525 7.7513C71.7525 14.2538 67.2157 21.7462 58.9239 21.7462C56.3693 21.7462 53.9962 20.9391 52 19.5381C52.363 19.5838 52.7119 19.599 53.0888 19.599C55.1967 19.599 57.137 18.8224 58.6865 17.4975C56.7043 17.4518 55.0431 16.0356 54.4708 14.0863C54.75 14.132 55.0292 14.1624 55.3223 14.1624C55.7272 14.1624 56.132 14.1015 56.5089 13.995C54.4429 13.5381 52.8934 11.5584 52.8934 9.16753V9.10664C53.4936 9.47213 54.1916 9.70055 54.9314 9.73097C53.7169 8.8477 52.9213 7.34011 52.9213 5.63452C52.9213 4.72083 53.1446 3.88327 53.5355 3.1523C55.755 6.13706 59.0913 8.08627 62.8324 8.2995C62.7626 7.93402 62.7207 7.55335 62.7207 7.17263C62.7207 4.46194 64.7309 2.25385 67.2296 2.25385C68.5278 2.25385 69.7004 2.84775 70.524 3.80714C71.543 3.59395 72.5202 3.18277 73.3857 2.61933C73.0506 3.76149 72.3387 4.72088 71.4035 5.32997C72.3109 5.22342 73.1903 4.94925 73.9999 4.56858C73.3858 5.54316 72.618 6.41114 71.7386 7.11169Z" fill="black" fill-opacity="0.6"/>
<g clip-path="url(#clip0)">
<path d="M115.005 6.60936C111.882 6.60936 109.362 9.01405 109.362 11.9953C109.362 14.9765 111.882 17.3812 115.005 17.3812C118.128 17.3812 120.647 14.9765 120.647 11.9953C120.647 9.01405 118.128 6.60936 115.005 6.60936ZM115.005 15.4969C112.987 15.4969 111.337 13.9265 111.337 11.9953C111.337 10.064 112.982 8.49374 115.005 8.49374C117.028 8.49374 118.673 10.064 118.673 11.9953C118.673 13.9265 117.023 15.4969 115.005 15.4969ZM122.194 6.38905C122.194 7.08749 121.605 7.6453 120.878 7.6453C120.146 7.6453 119.562 7.0828 119.562 6.38905C119.562 5.6953 120.151 5.1328 120.878 5.1328C121.605 5.1328 122.194 5.6953 122.194 6.38905ZM125.931 7.66405C125.848 5.98124 125.445 4.49061 124.154 3.26249C122.867 2.03436 121.305 1.64999 119.542 1.56561C117.725 1.46717 112.279 1.46717 110.462 1.56561C108.704 1.6453 107.143 2.02967 105.851 3.2578C104.56 4.48592 104.162 5.97655 104.074 7.65936C103.971 9.39374 103.971 14.5922 104.074 16.3265C104.157 18.0094 104.56 19.5 105.851 20.7281C107.143 21.9562 108.7 22.3406 110.462 22.425C112.279 22.5234 117.725 22.5234 119.542 22.425C121.305 22.3453 122.867 21.9609 124.154 20.7281C125.44 19.5 125.843 18.0094 125.931 16.3265C126.034 14.5922 126.034 9.39842 125.931 7.66405ZM123.584 18.1875C123.201 19.1062 122.459 19.814 121.492 20.1844C120.043 20.7328 116.606 20.6062 115.005 20.6062C113.404 20.6062 109.962 20.7281 108.518 20.1844C107.555 19.8187 106.814 19.1109 106.426 18.1875C105.851 16.8047 105.984 13.5234 105.984 11.9953C105.984 10.4672 105.856 7.18124 106.426 5.80311C106.809 4.88436 107.55 4.17655 108.518 3.80624C109.967 3.2578 113.404 3.38436 115.005 3.38436C116.606 3.38436 120.048 3.26249 121.492 3.80624C122.454 4.17186 123.196 4.87967 123.584 5.80311C124.158 7.18592 124.026 10.4672 124.026 11.9953C124.026 13.5234 124.158 16.8094 123.584 18.1875Z" fill="black" fill-opacity="0.6"/>
</g>
<path d="M178 12C178 18.4219 173.077 23.625 167 23.625C165.865 23.625 164.773 23.4422 163.744 23.1047C164.192 22.3312 164.862 21.0656 165.11 20.0578C165.244 19.5141 165.794 17.2922 165.794 17.2922C166.153 18.0141 167.2 18.6281 168.313 18.6281C171.631 18.6281 174.021 15.4031 174.021 11.3953C174.021 7.55625 171.054 4.68281 167.24 4.68281C162.494 4.68281 159.97 8.04844 159.97 11.7188C159.97 13.425 160.83 15.5484 162.201 16.2234C162.409 16.3266 162.52 16.2797 162.569 16.0687C162.604 15.9094 162.791 15.1172 162.875 14.7516C162.902 14.6344 162.888 14.5312 162.8 14.4188C162.352 13.8328 161.988 12.7641 161.988 11.7656C161.988 9.20156 163.824 6.72187 166.956 6.72187C169.657 6.72187 171.551 8.66719 171.551 11.4516C171.551 14.5969 170.047 16.7766 168.091 16.7766C167.013 16.7766 166.202 15.8344 166.463 14.6766C166.774 13.2938 167.373 11.8031 167.373 10.8047C167.373 9.91406 166.92 9.16875 165.98 9.16875C164.875 9.16875 163.988 10.3734 163.988 11.9906C163.988 13.0219 164.317 13.7156 164.317 13.7156C164.317 13.7156 163.23 18.5812 163.03 19.4906C162.808 20.4937 162.897 21.9094 162.99 22.8281C158.901 21.1359 156 16.9266 156 12C156 5.57812 160.923 0.375 167 0.375C173.077 0.375 178 5.57812 178 12Z" fill="black" fill-opacity="0.6"/>
<defs>
<clipPath id="clip0">
<rect width="22" height="24" fill="white" transform="translate(104)"/>
</clipPath>
</defs>
</svg>
